<svg xmlns="http://www.w3.org/2000/svg" viewBox="0 0 192 192" fill="none">
  <defs>
    <linearGradient id="g192" x1="0%" y1="0%" x2="100%" y2="100%">
      <stop offset="0%" stop-color="#6366f1"/>
      <stop offset="50%" stop-color="#818cf8"/>
      <stop offset="100%" stop-color="#06b6d4"/>
    </linearGradient>
    <linearGradient id="bg192" x1="50%" y1="0%" x2="50%" y2="100%">
      <stop offset="0%" stop-color="#6366f1" stop-opacity="0.25"/>
      <stop offset="100%" stop-color="#06b6d4" stop-opacity="0"/>
    </linearGradient>
  </defs>
  <rect width="192" height="192" rx="42" fill="#06060b"/>
  <circle cx="96" cy="96" r="80" fill="url(#bg192)"/>
  <circle cx="96" cy="96" r="72" stroke="url(#g192)" stroke-width="2" opacity="0.55"/>
  <circle cx="96" cy="96" r="66" fill="rgba(99,102,241,0.1)" stroke="rgba(255,255,255,0.1)" stroke-width="1.5"/>
  <ellipse cx="96" cy="96" rx="42" ry="42" stroke="url(#g192)" stroke-width="1.8" opacity="0.45"/>
  <ellipse cx="96" cy="96" rx="27" ry="42" stroke="url(#g192)" stroke-width="1.4" opacity="0.3"/>
  <line x1="54" y1="96" x2="138" y2="96" stroke="url(#g192)" stroke-width="1.2" opacity="0.25"/>
  <line x1="96" y1="54" x2="96" y2="138" stroke="url(#g192)" stroke-width="1.2" opacity="0.25"/>
  <path d="M96 30 L96 50" stroke="#06b6d4" stroke-width="3" stroke-linecap="round"/>
  <path d="M140 62 L122 74" stroke="#818cf8" stroke-width="2.5" stroke-linecap="round" opacity="0.75"/>
  <path d="M156 96 L136 96" stroke="#6366f1" stroke-width="2.5" stroke-linecap="round" opacity="0.75"/>
  <path d="M36 96 L56 96" stroke="#6366f1" stroke-width="2.5" stroke-linecap="round" opacity="0.75"/>
  <path d="M52 62 L70 74" stroke="#818cf8" stroke-width="2.5" stroke-linecap="round" opacity="0.75"/>
  <circle cx="96" cy="26" r="4" fill="#06b6d4"/>
  <circle cx="144" cy="58" r="3.5" fill="#818cf8"/>
  <circle cx="160" cy="96" r="3.5" fill="#6366f1"/>
  <circle cx="32" cy="96" r="3.5" fill="#6366f1"/>
  <circle cx="48" cy="58" r="3.5" fill="#818cf8"/>
  <path d="M102 70 L84 100 H92 L88 122 L114 88 H106 Z" fill="url(#g192)" stroke="rgba(255,255,255,0.25)" stroke-width="0.8" stroke-linejoin="round"/>
</svg>
